<svg width="20" height="18" viewBox="0 0 20 18" fill="none" xmlns="http://www.w3.org/2000/svg">
<path d="M9.645 17.91L9.638 17.907L9.616 17.895C9.48729 17.8242 9.35961 17.7515 9.233 17.677C7.71081 16.7725 6.28828 15.71 4.989 14.507C2.688 12.36 0.25 9.17401 0.25 5.25001C0.25 2.32201 2.714 9.91608e-06 5.688 9.91608e-06C6.51475 -0.00403951 7.33178 0.178351 8.07832 0.533615C8.82486 0.88888 9.48171 1.40788 10 2.05201C10.5184 1.40775 11.1754 0.888668 11.9221 0.533398C12.6689 0.178127 13.4861 -0.00419009 14.313 9.91608e-06C17.286 9.91608e-06 19.75 2.32201 19.75 5.25001C19.75 9.17501 17.312 12.361 15.011 14.506C13.7117 15.709 12.2892 16.7715 10.767 17.676C10.6404 17.7509 10.5127 17.8239 10.384 17.895L10.362 17.907L10.355 17.911L10.352 17.912C10.2436 17.9695 10.1227 17.9995 10 17.9995C9.87729 17.9995 9.75644 17.9695 9.648 17.912L9.645 17.91Z" fill="#209CE9"/>
<path d="M13.1019 11.8H12.4171L9.81796 8.67158L7.17921 11.8H6.5L9.45741 8.25578L6.76346 5H7.46166L9.82907 7.8637L12.2466 5H12.9017L10.1787 8.2465L13.1019 11.8Z" fill="white"/>
<path d="M7.14866 8.04865H12.4737V8.4354H7.14866V8.04865ZM7.14866 9.2089H12.4739V9.59566H7.14844L7.14866 9.2089Z" fill="white"/>
</svg>
